<?xml version="1.0" standalone="no"?>
<!DOCTYPE svg PUBLIC "-//W3C//DTD SVG 20010904//EN"
 "http://www.w3.org/TR/2001/REC-SVG-20010904/DTD/svg10.dtd">
<svg version="1.0" xmlns="http://www.w3.org/2000/svg"
 width="512.000000pt" height="512.000000pt" viewBox="0 0 512.000000 512.000000"
 preserveAspectRatio="xMidYMid meet">
<metadata>
Created by potrace 1.14, written by Peter Selinger 2001-2017
</metadata>
<g transform="translate(0.000000,512.000000) scale(0.100000,-0.100000)"
fill="#000000" stroke="none">
<path d="M3445 5109 c3 -4 1 -10 -5 -14 -5 -3 -10 -19 -10 -36 0 -31 8 -33
103 -31 36 0 77 38 77 69 0 24 -2 24 -85 22 -46 -1 -82 -5 -80 -10z"/>
<path d="M44 5024 c3 -42 6 -131 7 -198 0 -67 3 -116 5 -109 3 7 12 9 20 6 9
-3 28 6 45 23 25 24 32 27 49 16 24 -14 33 -15 25 -3 -3 6 4 8 16 6 19 -4 21
-1 15 25 -5 28 6 41 18 21 8 -12 30 -9 48 7 8 6 18 9 21 5 4 -3 7 1 7 10 0 8
5 28 12 44 7 15 12 35 13 43 0 10 11 15 35 15 26 0 36 5 38 19 3 11 15 28 28
39 13 10 24 24 24 32 0 33 69 38 78 5 2 -9 0 -11 -5 -5 -4 6 -18 10 -31 11
-16 0 -19 -3 -12 -10 5 -5 10 -27 10 -48 l0 -39 41 3 c26 1 44 8 50 19 15 29
10 56 -11 62 -26 7 -26 27 0 27 11 0 20 7 20 15 0 7 8 18 17 24 11 6 -87 10
-286 10 l-304 2 7 -77z"/>
<path d="M2655 5020 c-18 -34 -20 -80 -4 -80 8 0 8 -4 0 -14 -7 -8 -11 -27 -9
-43 3 -27 6 -28 59 -31 55 -3 57 -2 78 33 23 39 27 70 11 80 -6 4 -4 19 5 42
8 19 15 37 15 39 0 2 -31 4 -70 4 -67 0 -70 -1 -85 -30z m35 -35 c0 -8 -2 -15
-4 -15 -2 0 -6 7 -10 15 -3 8 -1 15 4 15 6 0 10 -7 10 -15z m38 1 c-7 -8 -15
-12 -17 -11 -5 6 10 25 20 25 5 0 4 -6 -3 -14z"/>
<path d="M2897 4987 c-21 -32 -26 -83 -8 -79 11 2 10 -3 -3 -22 -9 -14 -16
-34 -16 -46 0 -18 6 -20 64 -20 60 0 66 2 85 29 24 33 26 52 10 68 -8 8 -7 20
5 43 8 18 13 36 10 41 -3 5 -34 9 -68 9 -56 0 -66 -3 -79 -23z m33 -47 c0 -11
-4 -20 -9 -20 -6 0 -9 9 -8 20 1 11 5 20 9 20 4 0 8 -9 8 -20z"/>
<path d="M460 4930 c0 -5 5 -10 10 -10 6 0 10 5 10 10 0 6 -4 10 -10 10 -5 0
-10 -4 -10 -10z"/>
<path d="M3381 4836 c-14 -15 -22 -35 -21 -57 0 -19 -2 -49 -6 -66 l-6 -33 59
0 c49 0 63 4 81 23 33 35 29 69 -10 86 -19 9 -27 16 -19 19 7 2 17 -2 22 -9 7
-11 11 -10 23 6 32 42 21 55 -42 55 -49 0 -62 -4 -81 -24z m32 -36 c3 -13 0
-20 -8 -20 -11 0 -13 14 -6 38 3 8 9 -1 14 -18z"/>
<path d="M2324 4825 c-16 -24 -19 -53 -16 -141 2 -36 5 -41 25 -39 12 1 40 3
62 4 34 1 44 6 58 30 23 40 21 58 -9 86 l-27 25 27 0 c22 0 26 4 26 30 l0 30
-65 0 c-58 0 -66 -3 -81 -25z m26 -55 c0 -11 -4 -20 -10 -20 -5 0 -10 9 -10
20 0 11 5 20 10 20 6 0 10 -9 10 -20z"/>
<path d="M2094 4763 c-4 -10 -10 -58 -13 -106 l-6 -88 65 3 65 3 14 43 c11 37
11 48 0 70 -11 20 -11 26 -1 29 6 3 12 18 12 34 l0 29 -64 0 c-51 0 -65 -3
-72 -17z m53 -75 c-3 -8 -6 -5 -6 6 -1 11 2 17 5 13 3 -3 4 -12 1 -19z"/>
<path d="M127 4733 c-14 -14 -7 -80 11 -94 27 -23 66 -18 70 9 2 13 -2 22 -10
22 -11 0 -11 2 0 9 9 5 11 17 6 34 -5 22 -12 27 -38 27 -18 0 -36 -3 -39 -7z"/>
<path d="M48 4598 c-4 -30 -4 -60 1 -150 1 -25 5 -28 36 -28 24 0 35 5 35 15
0 8 9 15 20 15 23 0 26 20 8 51 -10 16 -10 23 -2 26 32 11 -32 103 -72 103
-17 0 -23 -7 -26 -32z"/>
<path d="M3020 4470 c-11 -11 -20 -24 -20 -29 0 -5 -3 -17 -7 -27 -4 -12 -3
-15 5 -10 16 9 16 -18 0 -43 -21 -34 -4 -51 54 -51 77 1 93 18 101 108 l6 72
-60 0 c-46 0 -63 -4 -79 -20z m30 -50 c0 -11 -4 -20 -9 -20 -6 0 -9 9 -8 20 1
11 5 20 9 20 4 0 8 -9 8 -20z m35 0 c3 -5 1 -10 -4 -10 -6 0 -11 5 -11 10 0 6
2 10 4 10 3 0 8 -4 11 -10z"/>
<path d="M2763 4468 c-6 -7 -13 -39 -17 -70 l-6 -58 49 0 c40 0 51 4 64 23 9
14 12 29 7 37 -5 7 -6 28 -3 47 l6 33 -45 0 c-25 0 -50 -6 -55 -12z m67 -43
c0 -8 -4 -15 -10 -15 -5 0 -7 7 -4 15 4 8 8 15 10 15 2 0 4 -7 4 -15z"/>
<path d="M788 4443 c-4 -7 -4 -36 1 -80 1 -16 57 -17 67 -2 3 6 2 14 -3 18 -5
3 -9 20 -9 36 1 25 -3 30 -26 33 -14 2 -28 0 -30 -5z m39 -39 c-3 -3 -12 -4
-19 -1 -8 3 -5 6 6 6 11 1 17 -2 13 -5z"/>
<path d="M645 4431 c-7 -13 17 -24 40 -19 9 1 16 8 16 13 0 14 -48 19 -56 6z"/>
<path d="M646 4391 c-12 -20 6 -42 33 -39 37 4 37 42 -1 46 -14 2 -29 -1 -32
-7z"/>
<path d="M1602 4338 c-17 -17 -15 -47 3 -54 8 -4 15 -12 15 -20 0 -8 -7 -14
-15 -14 -14 0 -19 -19 -18 -72 0 -12 -8 -18 -24 -18 -31 0 -39 -22 -19 -53 15
-22 15 -26 1 -37 -9 -7 -15 -29 -15 -52 l0 -39 68 3 67 3 1 60 c1 108 3 115
22 115 10 0 23 5 30 12 14 14 16 78 2 78 -13 0 -13 26 2 49 21 34 4 51 -55 51
-29 0 -58 -5 -65 -12z m22 -244 c3 -8 2 -12 -4 -9 -6 3 -10 10 -10 16 0 14 7
11 14 -7z"/>
<path d="M3355 4272 c-13 -10 -22 -31 -23 -52 -1 -19 -3 -46 -5 -60 -2 -24 1
-25 57 -28 48 -3 62 0 77 17 22 23 25 61 6 61 -7 0 -18 9 -25 20 -7 12 -8 20
-2 20 5 0 10 -4 10 -10 0 -16 27 -11 34 6 15 38 8 44 -51 44 -40 -1 -64 -6
-78 -18z m32 -58 c-9 -9 -28 6 -21 18 4 6 10 6 17 -1 6 -6 8 -13 4 -17z"/>
<path d="M80 4261 c0 -7 7 -25 15 -41 9 -17 11 -30 5 -30 -5 0 -10 -7 -10 -15
0 -8 -4 -15 -10 -15 -11 0 -14 -49 -4 -74 7 -19 50 -22 56 -4 3 7 22 13 44 14
21 1 42 3 47 3 4 1 7 13 7 27 0 15 8 33 18 40 14 11 15 16 5 33 -10 15 -10 21
0 24 8 3 7 10 -6 23 -21 22 -167 35 -167 15z m137 -78 c-11 -10 -26 8 -20 23
5 15 7 14 15 -1 6 -9 7 -19 5 -22z"/>
<path d="M2392 4248 c-6 -13 -11 -45 -10 -73 0 -27 -1 -57 -3 -65 -3 -12 8
-16 56 -18 52 -3 61 0 77 20 24 31 23 69 -1 75 -20 5 -20 5 0 26 10 11 19 29
19 39 0 15 -9 18 -63 18 -56 0 -65 -3 -75 -22z m28 -39 c0 -5 5 -7 10 -4 6 3
10 2 10 -3 0 -5 -11 -12 -25 -14 -28 -6 -27 -6 -19 16 7 18 24 22 24 5z"/>
<path d="M3101 4141 c-13 -23 -3 -35 16 -20 18 16 16 1 -2 -18 -42 -41 28 -73
75 -35 19 16 22 23 13 34 -7 8 -10 24 -6 36 5 20 2 22 -40 22 -35 0 -49 -5
-56 -19z"/>
<path d="M4291 4111 c-8 -5 -16 -28 -18 -51 l-4 -43 46 6 c56 6 85 28 66 51
-8 10 -9 16 -1 21 5 3 10 10 10 16 0 11 -80 12 -99 0z"/>
<path d="M748 4083 c0 -5 -2 -12 -3 -18 -2 -5 -3 -18 -4 -27 -1 -11 -12 -18
-33 -20 -30 -3 -33 -6 -36 -42 -2 -31 0 -37 13 -32 21 8 33 -24 13 -35 -13 -7
-13 -15 -4 -44 l11 -36 60 3 c56 3 60 5 63 29 2 14 -4 31 -12 39 -9 7 -16 22
-16 34 0 17 2 18 10 6 17 -28 22 -1 9 52 -7 29 -12 63 -11 76 1 18 -3 22 -28
22 -17 0 -31 -3 -32 -7z m29 -165 c-3 -7 -5 -2 -5 12 0 14 2 19 5 13 2 -7 2
-19 0 -25z"/>
<path d="M1812 4015 c-8 -15 -5 -65 4 -65 1 0 14 4 28 10 19 7 24 15 22 37 -4
33 -39 44 -54 18z"/>
<path d="M1697 3963 c-4 -3 -7 -21 -7 -40 0 -30 3 -33 29 -33 28 0 30 2 29 40
0 34 -3 40 -23 40 -12 0 -25 -3 -28 -7z"/>
<path d="M3639 3944 c-13 -16 -15 -23 -21 -74 -3 -23 -1 -24 47 -21 70 4 79
11 80 65 l1 46 -47 0 c-30 0 -51 -6 -60 -16z m58 -36 c-3 -8 -6 -5 -6 6 -1 11
2 17 5 13 3 -3 4 -12 1 -19z"/>
<path d="M600 3895 c0 -10 10 -15 31 -15 27 0 30 2 19 15 -7 8 -21 15 -31 15
-11 0 -19 -7 -19 -15z"/>
<path d="M42 3860 c0 -14 2 -19 5 -12 2 6 2 18 0 25 -3 6 -5 1 -5 -13z"/>
<path d="M2662 3858 c-17 -17 -15 -29 3 -22 8 4 15 2 15 -4 0 -5 -7 -12 -15
-16 -8 -3 -15 -15 -15 -26 0 -16 6 -20 34 -20 41 0 53 14 54 63 1 35 0 37 -31
37 -18 0 -38 -5 -45 -12z"/>
<path d="M600 3840 c0 -17 5 -21 28 -18 16 2 27 9 27 18 0 9 -11 16 -27 18
-23 3 -28 -1 -28 -18z"/>
<path d="M2965 3800 c-13 -15 -16 -30 -12 -60 3 -23 1 -40 -5 -40 -5 0 -8 -12
-6 -27 3 -26 7 -28 50 -31 61 -4 108 19 108 53 0 16 -6 25 -15 25 -21 0 -19
23 5 40 11 8 20 25 20 37 0 22 -4 23 -63 23 -51 0 -68 -4 -82 -20z m45 -47
c26 -23 25 -35 -2 -31 -13 2 -22 12 -24 26 -5 27 0 27 26 5z"/>
<path d="M1104 3775 c3 -8 1 -15 -4 -15 -16 0 -11 -27 6 -34 28 -11 33 -6 32
29 -1 28 -5 35 -21 35 -13 0 -17 -5 -13 -15z"/>
<path d="M1283 3772 c-7 -4 -11 -21 -10 -37 2 -25 7 -30 27 -30 22 0 25 5 28
38 3 30 0 37 -15 37 -10 0 -23 -4 -30 -8z"/>
<path d="M1446 3733 c-8 -28 -6 -143 2 -144 4 -1 25 -3 47 -4 57 -3 75 9 75
50 0 29 -4 35 -22 35 l-22 0 22 16 c12 8 22 26 22 40 0 23 -3 24 -59 24 -48 0
-61 -3 -65 -17z"/>
<path d="M2648 3729 c-19 -11 -25 -59 -8 -59 6 0 10 5 10 10 0 6 5 10 10 10 6
0 10 -9 10 -20 0 -13 -7 -20 -19 -20 -20 0 -39 -49 -26 -70 10 -16 113 -12
139 6 21 13 23 19 16 45 -5 18 -5 41 1 55 18 49 14 54 -53 54 -35 0 -71 -5
-80 -11z"/>
<path d="M657 3722 c-2 -4 -5 -22 -5 -39 -1 -31 1 -33 34 -33 33 0 45 12 24
25 -7 4 -7 13 0 26 6 10 7 19 3 20 -4 0 -18 2 -30 5 -12 2 -24 0 -26 -4z"/>
<path d="M543 3683 c-16 -6 -17 -65 -2 -80 14 -14 59 -4 59 14 0 8 -9 17 -20
20 -27 7 -25 19 3 27 18 5 20 8 7 16 -16 10 -28 11 -47 3z"/>
<path d="M3622 3663 c-13 -12 -22 -36 -25 -70 l-6 -53 58 0 c43 0 65 5 82 19
21 18 23 22 11 42 -10 15 -11 24 -3 32 6 6 11 19 11 29 0 15 -9 18 -54 18 -37
0 -60 -5 -74 -17z m19 -56 c-10 -9 -11 -8 -5 6 3 10 9 15 12 12 3 -3 0 -11 -7
-18z"/>
<path d="M3487 3613 c-4 -3 -7 -19 -7 -35 0 -28 2 -29 38 -26 34 3 37 6 40 36
3 30 2 32 -31 32 -18 0 -37 -3 -40 -7z"/>
<path d="M3994 3612 c-6 -4 -13 -19 -16 -34 -5 -27 -3 -28 33 -28 22 0 39 3
40 8 0 4 3 19 5 35 4 24 2 27 -23 27 -15 0 -33 -4 -39 -8z"/>
<path d="M1447 3563 c-4 -3 -7 -24 -7 -45 0 -37 1 -38 38 -38 l39 0 1 45 c0
44 0 45 -32 45 -18 0 -36 -3 -39 -7z"/>
<path d="M1927 3553 c-12 -11 -8 -81 5 -85 7 -3 11 -28 9 -76 l-2 -71 55 3
c30 2 60 7 65 11 13 8 15 55 2 55 -5 0 -4 15 2 35 12 40 8 48 -28 48 -31 0
-47 30 -34 65 8 20 6 22 -30 22 -21 0 -41 -3 -44 -7z m36 -40 c-7 -2 -19 -2
-25 0 -7 3 -2 5 12 5 14 0 19 -2 13 -5z m47 -103 c0 -11 -6 -20 -14 -20 -9 0
-12 7 -9 20 3 11 9 20 14 20 5 0 9 -9 9 -20z m-40 1 c0 -6 -4 -13 -10 -16 -5
-3 -10 1 -10 9 0 9 5 16 10 16 6 0 10 -4 10 -9z"/>
<path d="M4150 3547 c-21 -11 -25 -20 -28 -75 l-3 -63 58 2 c82 3 113 15 113
45 0 15 -6 24 -15 24 -21 0 -19 13 5 30 11 8 20 22 20 32 0 15 -9 18 -62 18
-35 0 -74 -6 -88 -13z m56 -47 c8 0 14 -4 14 -9 0 -15 -69 -19 -74 -4 -3 8 2
13 14 13 11 0 20 6 21 13 0 10 2 10 6 0 2 -7 11 -13 19 -13z"/>
<path d="M3031 3529 c-21 -8 -23 -14 -17 -49 3 -22 2 -41 -4 -45 -5 -3 -10
-15 -10 -26 0 -14 7 -19 29 -19 36 0 46 -24 32 -75 l-9 -35 54 0 c30 0 54 -4
54 -10 0 -14 106 -13 132 1 15 8 19 17 15 38 -10 50 1 71 38 71 46 0 65 9 65
31 0 13 -7 19 -22 20 l-23 0 23 9 c15 6 22 18 22 35 0 23 -4 25 -43 25 -58 0
-88 -22 -84 -63 2 -28 -1 -32 -25 -35 -20 -2 -28 1 -28 12 0 11 -10 16 -34 16
-40 0 -49 15 -40 71 l7 39 -54 -1 c-30 0 -65 -5 -78 -10z m29 -59 c0 -11 -4
-20 -10 -20 -5 0 -10 9 -10 20 0 11 5 20 10 20 6 0 10 -9 10 -20z m50 16 c0
-2 -7 -6 -15 -10 -8 -3 -15 -1 -15 4 0 6 7 10 15 10 8 0 15 -2 15 -4z m20 -32
c0 -2 -7 -4 -15 -4 -8 0 -15 4 -15 10 0 5 7 7 15 4 8 -4 15 -8 15 -10z m200
-14 c0 -5 -4 -10 -9 -10 -6 0 -13 5 -16 10 -3 6 1 10 9 10 9 0 16 -4 16 -10z
m-212 -77 c-2 -10 -7 -18 -12 -18 -5 0 -10 8 -12 18 -1 9 4 17 13 17 8 0 13
-7 11 -17z m109 11 c-3 -3 -12 -4 -19 -1 -8 3 -5 6 6 6 11 1 17 -2 13 -5z"/>
<path d="M1110 3486 c0 -8 6 -17 13 -19 10 -4 10 -6 0 -6 -7 -1 -13 -8 -13
-16 0 -10 10 -15 29 -15 38 0 49 17 19 29 -17 7 -19 10 -5 10 31 2 19 31 -13
31 -19 0 -30 -5 -30 -14z"/>
<path d="M573 3470 c4 -16 0 -20 -18 -20 -20 0 -23 -5 -23 -35 0 -35 8 -41 48
-35 22 3 24 8 9 26 -11 13 -11 15 2 14 31 -5 37 1 37 35 0 32 -2 35 -30 35
-25 0 -29 -3 -25 -20z"/>
<path d="M1033 3400 l-1 -50 34 0 c19 0 34 5 35 10 0 6 1 24 1 40 0 17 -1 35
-1 40 -1 6 -16 10 -34 10 -33 0 -33 0 -34 -50z m47 0 c0 -5 -4 -10 -10 -10 -5
0 -10 5 -10 10 0 6 5 10 10 10 6 0 10 -4 10 -10z"/>
<path d="M1657 3443 c-12 -11 -8 -21 11 -26 16 -4 16 -5 0 -6 -32 -2 -21 -31
12 -31 28 0 30 3 30 35 0 30 -3 35 -23 35 -13 0 -27 -3 -30 -7z"/>
<path d="M1480 3407 c0 -7 6 -19 12 -25 10 -10 10 -17 0 -32 -6 -11 -12 -28
-12 -39 0 -16 8 -19 55 -20 54 0 55 0 55 29 0 25 -4 30 -23 30 -14 0 -24 6
-24 15 0 18 14 20 19 3 7 -19 28 2 28 28 0 23 -3 24 -55 24 -38 0 -55 -4 -55
-13z"/>
<path d="M2842 3390 c-20 -9 -22 -15 -17 -49 3 -23 1 -42 -5 -46 -5 -3 -10
-13 -10 -21 0 -11 14 -14 59 -14 33 0 66 3 75 6 18 7 21 36 6 65 -7 13 -7 19
0 19 5 0 10 11 10 25 0 23 -3 25 -47 24 -27 0 -58 -4 -71 -9z m28 -55 c0 -8
-4 -15 -10 -15 -5 0 -10 7 -10 15 0 8 5 15 10 15 6 0 10 -7 10 -15z"/>
<path d="M165 3383 c-12 -9 -18 -83 -7 -84 4 0 21 -2 39 -4 l32 -3 -2 46 c-2
42 -5 47 -27 50 -14 1 -29 -1 -35 -5z m35 -33 c0 -5 -4 -10 -10 -10 -5 0 -10
5 -10 10 0 6 5 10 10 10 6 0 10 -4 10 -10z"/>
<path d="M1380 3371 c0 -6 5 -13 11 -17 8 -5 6 -10 -5 -16 -25 -14 -19 -28 14
-28 28 0 30 3 30 35 0 31 -3 35 -25 35 -14 0 -25 -4 -25 -9z"/>
<path d="M4077 3363 c-4 -3 -7 -16 -7 -28 0 -11 -5 -26 -11 -32 -20 -20 0 -31
51 -28 60 4 70 10 68 38 0 12 3 30 7 40 6 15 1 17 -47 17 -30 0 -58 -3 -61 -7z"/>
<path d="M4901 3319 c-33 -10 -33 -11 -27 -54 4 -26 3 -46 -4 -50 -5 -3 -10
-15 -10 -26 0 -17 7 -19 74 -19 128 0 165 17 137 62 -10 16 -8 25 9 52 11 18
20 36 20 40 0 10 -161 5 -199 -5z m69 -58 c0 -18 -23 -35 -33 -24 -7 6 15 43
25 43 5 0 8 -9 8 -19z m30 -2 c0 -11 -4 -18 -10 -14 -5 3 -7 12 -3 20 7 21 13
19 13 -6z"/>
<path d="M550 3231 c0 -11 5 -23 11 -27 8 -5 8 -9 -1 -14 -21 -13 -1 -30 34
-30 32 0 33 1 33 45 l0 45 -39 0 c-31 0 -38 -4 -38 -19z"/>
<path d="M3278 3219 c-11 -6 -18 -22 -18 -41 0 -26 2 -29 15 -18 13 11 14 10
8 -6 -3 -10 -13 -29 -21 -41 -7 -12 -11 -27 -7 -33 7 -11 125 -14 162 -4 26 7
37 51 15 63 -14 8 -14 12 1 35 32 49 25 56 -60 56 -43 0 -86 -5 -95 -11z m52
-60 c0 -10 -7 -19 -15 -19 -16 0 -19 9 -9 34 8 20 24 11 24 -15z m30 0 c0 -11
-4 -18 -10 -14 -5 3 -7 12 -3 20 7 21 13 19 13 -6z"/>
<path d="M790 3096 c0 -16 8 -26 23 -31 l22 -8 -22 -4 c-18 -3 -23 -11 -23
-34 l0 -29 105 0 c59 0 105 4 105 9 0 6 17 11 37 13 35 3 37 5 37 38 0 33 -2
35 -38 38 -37 3 -38 2 -32 -22 7 -29 -8 -35 -23 -9 -6 12 -5 20 6 29 33 23 3
34 -98 34 -98 0 -99 0 -99 -24z m110 -30 c0 -8 -51 -13 -56 -5 -3 5 9 9 25 9
17 0 31 -2 31 -4z"/>
<path d="M2147 3093 c-4 -3 -7 -30 -7 -58 l0 -52 43 4 c23 2 48 6 55 8 17 6
15 45 -3 45 -8 0 -15 5 -15 10 0 6 7 10 15 10 8 0 15 9 15 20 0 17 -7 20 -48
20 -27 0 -52 -3 -55 -7z"/>
<path d="M200 3065 c0 -14 4 -25 10 -25 5 0 9 -21 7 -47 l-2 -48 67 -3 68 -3
-6 63 c-8 91 -5 88 -79 88 -63 0 -65 -1 -65 -25z m130 -47 c0 -19 -2 -20 -10
-8 -13 19 -13 30 0 30 6 0 10 -10 10 -22z"/>
<path d="M1340 3045 c0 -9 7 -18 15 -21 18 -7 20 -25 3 -21 -6 1 -14 -6 -16
-15 -3 -15 4 -18 37 -18 l41 0 0 45 0 45 -40 0 c-29 0 -40 -4 -40 -15z"/>
<path d="M3895 3041 c-3 -5 -1 -12 5 -16 5 -3 10 1 10 9 0 18 -6 21 -15 7z"/>
<path d="M4757 3019 c-11 -7 -16 -17 -12 -29 3 -11 0 -20 -10 -24 -11 -4 -14
-13 -9 -30 3 -13 1 -27 -5 -30 -22 -14 -11 -36 18 -36 64 0 121 13 121 27 0 8
9 17 20 20 18 5 25 22 21 47 -1 5 3 22 8 37 l10 29 -72 0 c-40 0 -80 -5 -90
-11z m63 -45 c0 -8 -6 -14 -14 -14 -9 0 -12 7 -9 20 6 22 23 18 23 -6z"/>
<path d="M3791 2998 c-1 -10 -5 -18 -11 -18 -5 0 -10 -9 -10 -20 0 -19 5 -21
68 -18 61 3 67 5 70 26 3 17 -2 22 -17 22 -12 0 -21 6 -21 13 0 8 -4 7 -10 -3
-9 -13 -11 -13 -20 0 -6 10 -10 11 -10 3 0 -7 -6 -13 -14 -13 -8 0 -17 6 -19
13 -3 7 -6 5 -6 -5z"/>
<path d="M1543 2970 c0 -25 4 -30 24 -30 19 0 23 5 23 30 0 25 -4 30 -23 30
-20 0 -24 -5 -24 -30z"/>
<path d="M496 2933 c9 -73 9 -73 64 -73 54 0 62 11 38 50 -11 17 -10 22 1 29
8 5 11 16 8 25 -5 12 -20 16 -61 16 l-56 0 6 -47z"/>
<path d="M1140 2961 c0 -5 6 -11 13 -14 9 -3 9 -7 0 -19 -16 -18 -7 -28 24
-28 20 0 23 5 23 35 0 32 -2 35 -30 35 -16 0 -30 -4 -30 -9z"/>
<path d="M5086 2945 c-9 -16 -15 -22 -12 -13 7 24 -32 35 -52 14 -13 -13 -14
-20 -6 -34 10 -15 6 -17 -43 -14 -64 5 -83 -8 -83 -54 0 -29 -3 -34 -24 -34
-16 0 -27 -7 -31 -20 -4 -14 -15 -20 -34 -20 -38 0 -44 -10 -24 -33 10 -11 12
-17 6 -13 -7 4 -13 3 -13 -3 0 -6 -12 -14 -27 -17 -16 -4 -38 -16 -51 -28 -33
-29 -134 -31 -142 -2 -4 14 -15 19 -46 20 -29 1 -40 -3 -37 -11 3 -7 0 -13 -6
-13 -6 0 -14 0 -18 0 -8 -1 -14 23 -15 62 -1 27 -23 44 -63 50 -13 2 -21 12
-23 31 -2 15 -9 27 -18 27 -10 0 -13 7 -8 24 5 20 2 25 -18 28 -12 2 -22 9
-21 16 3 12 -14 16 -48 13 -9 -1 -22 5 -29 14 -15 18 -61 20 -56 3 1 -7 1 -10
-1 -5 -7 11 -33 9 -33 -3 0 -5 -5 -10 -11 -10 -8 0 -8 4 0 14 8 9 8 16 2 20
-12 8 -111 5 -112 -3 -1 -3 -3 -24 -5 -47 l-3 -41 41 1 c24 1 43 -4 45 -11 3
-7 -2 -13 -11 -13 -8 0 -20 -8 -25 -17 -10 -17 -10 -17 -11 -1 0 13 -6 17 -22
14 -13 -3 -29 -5 -35 -5 -7 -1 -13 -10 -13 -21 0 -11 -7 -20 -15 -20 -9 0 -15
-9 -15 -24 0 -31 -16 -61 -65 -119 -41 -49 -135 -105 -154 -92 -20 12 -11 -14
9 -28 41 -29 81 -147 50 -147 -5 0 -10 -7 -10 -15 0 -8 -12 -26 -26 -40 l-25
-25 23 -9 c21 -9 21 -10 -9 -10 -20 -1 -33 4 -33 12 0 8 -2 9 -8 1 -4 -6 -21
-14 -38 -18 -23 -5 -37 -1 -59 16 -31 24 -96 30 -103 10 -2 -7 -22 -12 -48
-12 -34 0 -44 -4 -44 -16 0 -29 -72 -134 -92 -134 -5 0 -25 -17 -46 -38 -27
-27 -39 -48 -40 -69 0 -23 -14 -45 -55 -87 -30 -31 -61 -56 -70 -56 -10 0 -17
-4 -17 -10 0 -5 -7 -10 -16 -10 -8 0 -24 -5 -36 -11 -29 -16 -148 -18 -163 -2
-7 6 -22 9 -34 6 -15 -4 -21 -1 -21 11 0 9 -8 16 -18 16 -25 0 -130 105 -117
118 3 3 9 1 13 -5 4 -6 27 -21 52 -33 25 -12 53 -26 62 -31 24 -12 158 -12
158 1 0 6 9 10 20 10 11 0 20 5 20 10 0 6 9 10 20 10 11 0 20 5 20 10 0 6 7
10 15 10 23 0 70 46 56 54 -17 11 -13 26 8 26 30 0 55 64 53 135 -1 33 -6 61
-12 63 -8 3 -7 8 1 18 8 10 8 14 0 14 -6 0 -11 6 -11 13 0 6 -9 23 -20 37
l-19 25 3 -30 c4 -41 -22 -83 -53 -87 -17 -2 -25 -8 -23 -18 2 -8 0 -12 -3 -8
-4 4 -17 1 -29 -7 -25 -18 -77 -20 -94 -3 -10 10 -11 6 -6 -19 4 -20 1 -39
-10 -55 -15 -23 -15 -26 4 -46 22 -23 23 -49 3 -70 -15 -16 -16 -22 -4 -41 5
-7 14 -10 20 -7 17 11 13 26 -6 26 -15 0 -14 2 3 15 10 8 27 15 36 15 10 0 23
10 29 23 7 12 20 28 31 35 10 7 18 20 18 28 0 8 6 14 14 14 8 0 26 14 40 32
25 32 25 54 1 44 -7 -2 -16 1 -19 9 -3 10 5 15 27 17 27 2 33 8 37 33 5 27 7
25 13 -19 5 -36 3 -52 -7 -60 -12 -9 -22 -43 -28 -94 -1 -7 -21 -28 -44 -47
-24 -20 -46 -44 -49 -56 -4 -12 -19 -22 -36 -26 -16 -3 -29 -9 -29 -14 0 -5
-13 -6 -30 -3 -19 4 -30 2 -30 -5 0 -6 -16 -11 -35 -11 -19 0 -35 5 -35 10 0
6 16 10 35 10 47 0 45 16 -2 24 -105 15 -114 18 -103 31 8 10 1 12 -35 9 -31
-2 -45 1 -45 10 0 7 -15 18 -32 25 -40 16 -98 85 -98 116 0 24 -22 49 -33 38
-4 -3 -7 1 -7 11 0 9 -8 20 -17 23 -10 4 -21 11 -24 15 -3 5 -15 11 -25 12
-11 2 -18 10 -16 19 2 12 -8 17 -45 19 -41 3 -48 6 -51 26 -3 16 -10 22 -30
23 -15 1 -34 2 -42 3 -8 0 -16 13 -18 27 -3 22 -8 26 -30 25 -15 -1 -33 -5
-39 -9 -7 -5 -13 -5 -13 -1 0 4 -10 -5 -23 -20 -22 -26 -28 -27 -133 -30 -173
-5 -164 -4 -164 -25 0 -11 -9 -23 -20 -26 -11 -3 -20 -13 -20 -21 0 -8 -6 -14
-14 -14 -8 0 -22 -3 -32 -7 -13 -5 -16 -3 -11 9 6 17 -17 28 -61 28 -13 0 -20
4 -17 10 3 6 2 10 -4 10 -5 0 -12 -4 -15 -9 -3 -5 -23 -8 -43 -8 -36 2 -38 4
-41 37 -6 59 -52 89 -91 59 -13 -11 -35 -19 -48 -19 -14 0 -21 -4 -18 -10 3
-5 -3 -10 -14 -10 -12 0 -20 5 -18 12 3 19 -142 21 -150 2 -3 -7 -11 -14 -18
-14 -7 0 -15 -7 -19 -15 -3 -8 -15 -15 -26 -15 -22 0 -27 16 -7 23 6 3 -25 4
-71 3 -56 -1 -81 -5 -78 -12 3 -7 -6 -12 -20 -11 -15 0 -24 5 -24 14 0 11 -7
13 -25 9 -21 -5 -25 -3 -25 15 0 18 -4 20 -27 14 -15 -3 -30 -10 -33 -15 -3
-5 -18 -12 -33 -15 -15 -4 -27 -13 -27 -21 0 -8 -6 -11 -15 -8 -10 4 -15 0
-15 -15 0 -12 -6 -21 -15 -21 -8 0 -15 7 -15 15 0 11 -11 15 -38 15 -25 0 -46
7 -60 20 -26 24 -25 22 -10 55 6 14 17 25 25 25 17 0 17 59 0 66 -7 2 -24 0
-38 -5 l-24 -10 27 0 c15 -1 30 -5 33 -11 4 -6 -15 -10 -49 -10 -30 0 -57 4
-60 8 -10 16 -66 1 -66 -17 0 -12 -12 -21 -37 -27 -21 -5 -37 -13 -36 -19 1
-5 -7 -13 -18 -17 -10 -4 -19 -14 -19 -23 0 -8 -8 -15 -18 -15 -11 0 -23 -10
-29 -22 -8 -19 -18 -22 -71 -22 -53 -1 -62 1 -62 16 0 10 -3 18 -7 19 -33 3
-59 11 -61 19 -2 6 -10 10 -17 10 -12 0 -14 -37 -14 -199 l-1 -199 28 -7 c52
-15 62 -13 62 11 0 13 -5 26 -10 29 -9 6 -40 69 -40 83 0 18 72 -73 76 -98 4
-16 10 -30 15 -30 5 0 9 -6 9 -14 0 -8 8 -17 17 -19 17 -4 17 -5 1 -6 -24 -1
-23 -17 2 -24 12 -3 29 -24 41 -52 23 -53 20 -111 -7 -153 -10 -15 -13 -34 -9
-52 10 -44 -13 -96 -52 -117 -44 -24 -46 -34 -12 -71 16 -17 26 -37 23 -45 -8
-21 7 -27 49 -20 23 3 37 11 37 20 0 10 6 13 16 9 9 -3 25 -6 36 -6 20 0 21
-1 3 -20 -10 -11 -28 -20 -41 -20 -12 0 -25 -6 -27 -12 -4 -10 -6 -10 -6 0 -1
7 -14 12 -31 12 -31 0 -31 0 -34 -63 -1 -9 -12 -24 -24 -33 -21 -14 -57 -72
-50 -79 7 -7 69 -13 88 -8 20 5 20 7 4 24 -9 11 -12 19 -6 19 6 0 14 -5 18
-11 3 -6 14 6 24 29 19 41 39 52 98 52 22 0 32 -5 32 -15 0 -22 49 -43 59 -26
6 10 12 9 24 -3 8 -9 22 -16 29 -16 8 0 19 -5 26 -12 9 -9 13 -8 18 5 10 28 0
52 -26 55 -13 2 -32 13 -42 25 -10 11 -18 16 -18 11 0 -5 -7 0 -15 10 -24 32
-19 88 11 124 23 27 34 32 71 32 32 0 48 -6 61 -21 9 -12 23 -27 29 -34 15
-16 17 -75 3 -75 -5 0 -10 -6 -10 -14 0 -11 7 -12 34 -4 43 13 98 3 121 -22
21 -23 35 -89 24 -117 -4 -12 -17 -24 -28 -28 -19 -6 -20 -8 -5 -30 19 -29 13
-51 -26 -90 -58 -59 -59 -60 -72 -25 -11 32 -40 50 -84 50 -13 0 -24 3 -24 8
0 4 -22 15 -49 25 -33 12 -51 24 -55 39 l-7 23 -9 -22 c-5 -12 -17 -26 -27
-33 -15 -9 -12 -10 15 -5 29 6 32 5 32 -19 0 -30 3 -31 30 -14 22 14 39 3 22
-14 -21 -21 -14 -48 12 -48 37 0 76 -18 76 -35 0 -8 5 -15 10 -15 6 0 10 -14
10 -31 0 -28 3 -31 24 -25 26 6 52 -15 41 -34 -3 -5 1 -10 9 -10 8 0 17 9 21
19 12 39 78 38 90 0 9 -26 -20 -69 -45 -69 -11 0 -28 9 -37 20 -12 14 -30 20
-58 20 -23 0 -46 5 -53 12 -9 9 -12 9 -12 0 0 -7 -9 -12 -20 -12 -11 0 -20 -4
-20 -9 0 -5 -10 -11 -21 -14 -16 -4 -20 -11 -15 -23 32 -85 5 -156 -66 -175
l-43 -12 -1 -66 c0 -36 -4 -91 -8 -122 -8 -53 -7 -57 13 -64 13 -4 20 -12 17
-20 -3 -8 0 -16 7 -18 9 -3 9 -8 0 -18 -18 -18 -16 -29 5 -30 10 0 12 -3 5 -6
-7 -2 -13 -15 -13 -27 0 -18 -8 -23 -55 -32 l-54 -10 -5 41 c-16 144 -22 280
-15 345 10 94 11 243 3 343 -7 80 -23 106 -25 40 -1 -57 -7 -29 -14 70 -4 48
-10 87 -13 87 -4 0 -6 -21 -4 -47 2 -36 0 -44 -7 -33 -6 8 -11 23 -11 33 0 10
-5 15 -10 12 -7 -4 -9 -68 -6 -183 l5 -177 -14 95 c-7 52 -14 122 -16 155 l-2
60 -8 -65 c-5 -36 -6 -90 -3 -121 3 -32 2 -59 -4 -63 -10 -6 -22 38 -22 83 0
21 -2 23 -10 11 -6 -9 -8 -65 -4 -145 6 -125 5 -131 -16 -155 -46 -51 -50 -77
-50 -301 0 -187 2 -210 15 -199 8 7 15 20 16 29 1 9 5 0 10 -19 4 -19 6 -43 3
-53 -5 -16 7 -17 165 -16 94 1 174 5 177 10 7 12 61 11 69 -1 4 -6 128 -10
341 -10 332 0 334 0 322 20 -7 11 -20 20 -29 20 -9 0 -19 7 -23 15 -3 10 -19
15 -46 15 -22 0 -40 4 -40 9 0 15 13 20 62 23 32 2 44 7 41 16 -6 13 14 42 28
42 5 0 9 -7 9 -15 0 -8 6 -15 13 -15 8 0 28 -7 45 -16 18 -8 36 -13 42 -9 5 3
10 0 10 -8 0 -12 9 -14 38 -10 48 6 72 -15 44 -40 -13 -12 -27 -14 -59 -8 -33
6 -43 5 -43 -5 0 -7 5 -16 11 -20 15 -9 197 -13 282 -7 55 5 65 8 56 19 -13
16 -16 16 83 18 76 1 100 -6 57 -17 -34 -9 -12 -26 29 -22 20 2 142 4 270 4
228 1 232 1 232 22 0 16 5 19 20 15 11 -3 29 -8 39 -11 11 -3 22 -1 26 5 3 5
18 10 32 10 18 0 24 4 19 15 -3 8 -1 15 4 15 8 0 25 -39 18 -44 -1 -1 -19 -7
-38 -13 -26 -8 128 -11 578 -12 336 0 612 3 612 8 0 4 -20 26 -46 47 -48 42
-117 61 -143 41 -10 -9 -18 -6 -31 11 -16 19 -28 22 -89 22 -39 0 -71 4 -71
10 0 14 36 31 54 24 9 -3 21 5 32 21 15 23 23 26 53 22 53 -7 65 -11 73 -22 4
-5 8 -1 8 10 0 15 2 17 9 6 5 -7 14 -10 20 -7 6 4 11 2 11 -3 0 -6 5 -11 11
-11 6 0 9 9 6 20 -5 21 9 25 73 21 14 -1 37 -1 53 -1 25 0 27 -2 27 -44 0 -25
-5 -48 -11 -51 -6 -4 -8 -14 -5 -22 4 -10 1 -13 -12 -9 -9 3 -24 1 -32 -4 -29
-18 18 -47 95 -58 39 -6 86 -14 105 -19 19 -5 60 -9 90 -8 30 0 192 2 360 3
305 2 305 2 280 22 -20 16 -41 20 -104 20 -72 0 -81 2 -117 31 -29 23 -38 36
-35 52 3 12 7 41 10 65 l6 42 -72 0 c-70 0 -76 2 -137 45 l-65 45 42 0 c44 0
62 13 37 28 -25 13 196 7 225 -7 14 -6 43 -22 65 -36 69 -41 84 -45 184 -45
54 0 101 -3 105 -7 4 -5 12 -9 17 -9 25 -4 20 -8 -18 -13 -35 -5 -41 -9 -33
-21 7 -11 29 -15 83 -16 54 0 85 -6 118 -22 25 -12 76 -24 119 -28 44 -4 87
-15 105 -26 44 -27 65 -24 65 10 0 26 -2 27 -57 30 -31 2 -68 9 -81 16 -24 13
-22 13 29 19 35 3 64 1 82 -8 l27 -14 -1 1352 c-1 744 -4 1363 -8 1377 l-7 25
-18 -30z m-1046 -30 c0 -8 -4 -15 -10 -15 -5 0 -10 7 -10 15 0 8 5 15 10 15 6
0 10 -7 10 -15z m27 -7 c-3 -8 -6 -5 -6 6 -1 11 2 17 5 13 3 -3 4 -12 1 -19z
m1040 -15 c-3 -3 -11 -2 -17 2 -9 6 -9 10 1 16 14 8 27 -7 16 -18z m-1107 -87
c0 -3 -4 -8 -10 -11 -5 -3 -10 -1 -10 4 0 6 5 11 10 11 6 0 10 -2 10 -4z m562
-208 c-7 -7 -12 -8 -12 -2 0 6 3 14 7 17 3 4 9 5 12 2 2 -3 -1 -11 -7 -17z
m-597 -65 c-3 -16 -8 -39 -9 -52 -2 -14 -8 -27 -14 -29 -7 -2 -12 -11 -12 -21
0 -9 -10 -23 -21 -31 -12 -8 -37 -30 -55 -47 -18 -18 -38 -33 -44 -33 -5 0
-10 -4 -10 -10 0 -5 -15 -9 -32 -9 -24 1 -27 3 -10 6 12 2 22 9 22 14 0 5 5 9
10 9 11 0 34 20 92 78 16 15 28 35 28 45 0 9 5 17 10 17 6 0 10 9 10 20 0 11
5 20 10 20 6 0 10 11 10 25 0 14 5 25 11 25 7 0 9 -10 4 -27z m-3435 -102 c0
-6 -4 -13 -10 -16 -5 -3 -10 1 -10 9 0 9 5 16 10 16 6 0 10 -4 10 -9z m1616
-68 c-10 -10 -19 5 -10 18 6 11 8 11 12 0 2 -7 1 -15 -2 -18z m-1131 -33 c3
-5 1 -10 -4 -10 -6 0 -11 5 -11 10 0 6 2 10 4 10 3 0 8 -4 11 -10z m127 -32
c-7 -7 -12 -8 -12 -2 0 14 12 26 19 19 2 -3 -1 -11 -7 -17z m48 2 c0 -5 -4
-10 -10 -10 -5 0 -10 5 -10 10 0 6 5 10 10 10 6 0 10 -4 10 -10z m2365 -20 c3
-5 1 -10 -4 -10 -6 0 -11 5 -11 10 0 6 2 10 4 10 3 0 8 -4 11 -10z m-3115 -10
c8 -5 11 -10 5 -10 -5 0 -17 5 -25 10 -8 5 -10 10 -5 10 6 0 17 -5 25 -10z
m1943 -107 c-7 -2 -19 -2 -25 0 -7 3 -2 5 12 5 14 0 19 -2 13 -5z m-1698 -33
c3 -5 -1 -10 -10 -10 -9 0 -13 5 -10 10 3 6 8 10 10 10 2 0 7 -4 10 -10z
m2905 -6 c0 -17 -22 -14 -28 4 -2 7 3 12 12 12 9 0 16 -7 16 -16z m90 6 c0 -5
-2 -10 -4 -10 -3 0 -8 5 -11 10 -3 6 -1 10 4 10 6 0 11 -4 11 -10z m174 -25
c-6 -16 -24 -21 -24 -7 0 11 11 22 21 22 5 0 6 -7 3 -15z m116 11 c0 -3 -4 -8
-10 -11 -5 -3 -10 -1 -10 4 0 6 5 11 10 11 6 0 10 -2 10 -4z m-1970 -16 c0 -5
-7 -10 -15 -10 -8 0 -15 5 -15 10 0 6 7 10 15 10 8 0 15 -4 15 -10z m290 -15
c0 -8 -4 -15 -10 -15 -5 0 -7 7 -4 15 4 8 8 15 10 15 2 0 4 -7 4 -15z m-1257
-32 c-7 -2 -19 -2 -25 0 -7 3 -2 5 12 5 14 0 19 -2 13 -5z m3217 -15 c0 -4 -9
-8 -20 -8 -11 0 -20 4 -20 9 0 6 9 9 20 8 11 -1 20 -5 20 -9z m-2685 -8 c-3
-5 -13 -10 -21 -10 -8 0 -14 5 -14 10 0 6 9 10 21 10 11 0 17 -4 14 -10z m219
-15 c3 -8 1 -15 -4 -15 -6 0 -10 7 -10 15 0 8 2 15 4 15 2 0 6 -7 10 -15z
m-1521 -65 c7 0 6 -5 -2 -12 -11 -11 -14 -10 -18 0 -4 10 -8 10 -19 1 -8 -6
-14 -7 -14 -2 0 16 13 24 28 18 7 -3 19 -5 25 -5z m70 -31 c-6 -6 -28 -9 -49
-6 l-39 4 43 1 c24 1 42 7 42 14 0 6 3 8 7 5 4 -4 2 -12 -4 -18z m67 11 c0 -5
-7 -10 -16 -10 -8 0 -12 5 -9 10 3 6 10 10 16 10 5 0 9 -4 9 -10z m89 -21 c8
-19 18 -28 27 -25 8 3 21 9 31 13 30 12 3 -18 -31 -33 l-31 -15 35 7 c54 11
73 10 77 -3 3 -10 -12 -13 -55 -13 -37 0 -62 -4 -64 -12 -2 -6 -10 -8 -16 -4
-17 10 -15 24 6 29 10 3 6 5 -10 6 -24 1 -28 5 -28 29 0 55 38 69 59 21z m921
5 c0 -2 -7 -4 -15 -4 -8 0 -15 4 -15 10 0 5 7 7 15 4 8 -4 15 -8 15 -10z
m-787 -12 c-13 -2 -23 -8 -23 -13 0 -5 -7 -9 -15 -9 -8 0 -15 4 -15 8 0 18 23
29 48 23 25 -5 25 -6 5 -9z m80 1 c-7 -2 -19 -2 -25 0 -7 3 -2 5 12 5 14 0 19
-2 13 -5z m60 0 c-7 -2 -21 -2 -30 0 -10 3 -4 5 12 5 17 0 24 -2 18 -5z m3193
-11 c-6 -10 -73 -8 -83 2 -3 3 15 6 41 6 26 0 45 -4 42 -8z m110 -11 c-5 -8
-56 -3 -56 5 0 2 14 4 31 4 16 0 28 -4 25 -9z m-3166 -16 c0 -8 -4 -15 -10
-15 -5 0 -10 4 -10 9 0 5 -8 12 -17 14 -11 3 -7 5 10 6 18 1 27 -4 27 -14z
m45 4 c11 -17 -1 -21 -15 -4 -8 9 -8 15 -2 15 6 0 14 -5 17 -11z m525 -25 c0
-17 -12 -18 -28 -2 -18 18 -15 27 8 21 11 -3 20 -12 20 -19z m-630 0 c0 -2
-11 -4 -25 -4 -14 0 -25 4 -25 9 0 4 11 6 25 3 14 -2 25 -6 25 -8z m910 -4 c0
-5 -2 -10 -4 -10 -3 0 -8 5 -11 10 -3 6 -1 10 4 10 6 0 11 -4 11 -10z m1916
-13 c4 -4 -14 -7 -40 -7 -27 0 -45 4 -41 10 6 10 70 8 81 -3z m-209 -3 c-3 -3
-12 -4 -19 -1 -8 3 -5 6 6 6 11 1 17 -2 13 -5z m-2426 -32 c-7 -2 -18 1 -23 6
-8 8 -4 9 13 5 13 -4 18 -8 10 -11z m1236 2 c-3 -3 -12 -4 -19 -1 -8 3 -5 6 6
6 11 1 17 -2 13 -5z m-1154 -51 c-7 -2 -21 -2 -30 0 -10 3 -4 5 12 5 17 0 24
-2 18 -5z m501 -28 c3 -8 1 -15 -4 -15 -6 0 -10 7 -10 15 0 8 2 15 4 15 2 0 6
-7 10 -15z m-109 -15 c-3 -5 -11 -10 -16 -10 -6 0 -7 5 -4 10 3 6 11 10 16 10
6 0 7 -4 4 -10z m-1030 -28 c-2 -31 -15 -42 -52 -42 -36 0 -36 0 -17 18 10 10
27 17 37 14 11 -3 17 1 17 12 0 9 4 16 8 16 5 0 8 -8 7 -18z m990 -2 c3 -5 1
-10 -4 -10 -6 0 -11 5 -11 10 0 6 2 10 4 10 3 0 8 -4 11 -10z m213 -27 c2 -8
-5 -13 -17 -13 -12 0 -21 6 -21 16 0 18 31 15 38 -3z m-370 -24 c45 -11 86
-32 46 -24 -10 2 -40 7 -67 10 -26 4 -45 10 -42 16 8 11 6 11 63 -2z m-968 -9
c-36 -12 -90 -12 -90 0 0 6 25 10 58 9 43 -1 51 -3 32 -9z m370 -1 c0 11 3 11
15 1 10 -8 32 -11 60 -8 25 3 48 2 51 -3 3 -5 -25 -9 -61 -9 -42 0 -64 -4 -60
-10 4 -6 -13 -10 -43 -10 -27 0 -71 -3 -97 -7 -35 -4 -46 -3 -41 5 4 7 31 12
62 12 41 0 60 5 76 20 17 15 24 17 30 8 6 -10 8 -10 8 1z m1240 1 c0 -5 -2
-10 -4 -10 -3 0 -8 5 -11 10 -3 6 -1 10 4 10 6 0 11 -4 11 -10z m-182 -9 c20
-2 13 -21 -8 -21 -13 0 -20 -7 -20 -20 0 -14 -5 -18 -17 -13 -22 8 -33 23 -33
45 0 14 7 17 33 14 17 -2 38 -4 45 -5z m-193 -11 c3 -5 -1 -10 -10 -10 -9 0
-13 5 -10 10 3 6 8 10 10 10 2 0 7 -4 10 -10z m1745 0 c0 -5 -7 -10 -15 -10
-8 0 -15 5 -15 10 0 6 7 10 15 10 8 0 15 -4 15 -10z m-1432 -15 c25 -7 30 -25
7 -25 -8 0 -15 5 -15 10 0 6 -7 10 -15 10 -18 0 -19 -12 -4 -27 8 -8 8 -13 0
-18 -6 -3 -18 0 -25 8 -19 19 -9 59 13 53 9 -2 26 -7 39 -11z m-518 -5 c0 -5
-4 -10 -10 -10 -5 0 -10 5 -10 10 0 6 5 10 10 10 6 0 10 -4 10 -10z m1845 0
c3 -5 1 -10 -4 -10 -6 0 -11 5 -11 10 0 6 2 10 4 10 3 0 8 -4 11 -10z m402
-12 c-3 -8 -6 -5 -6 6 -1 11 2 17 5 13 3 -3 4 -12 1 -19z m-3140 -14 c-3 -3
-12 -4 -19 -1 -8 3 -5 6 6 6 11 1 17 -2 13 -5z m38 -4 c3 -5 -1 -10 -9 -10 -9
0 -16 5 -16 10 0 6 4 10 9 10 6 0 13 -4 16 -10z m466 3 c-18 -3 -43 -13 -54
-24 -23 -21 -37 -24 -37 -9 0 5 -6 7 -12 5 -7 -3 -33 -1 -58 4 -31 6 -37 9
-18 10 15 1 30 6 33 11 3 6 44 9 93 8 48 0 72 -3 53 -5z m249 -13 c0 -5 -2
-10 -4 -10 -3 0 -8 5 -11 10 -3 6 -1 10 4 10 6 0 11 -4 11 -10z m-405 -48
c-27 -2 -54 -7 -59 -13 -15 -14 -26 -11 -20 5 6 16 73 25 109 16 11 -3 -2 -6
-30 -8z m495 -1 c0 -5 -7 -12 -16 -15 -28 -11 -54 -6 -54 9 0 10 11 15 35 15
19 0 35 -4 35 -9z m35 -1 c3 -5 -1 -10 -10 -10 -9 0 -13 5 -10 10 3 6 8 10 10
10 2 0 7 -4 10 -10z m215 -25 c0 -9 -6 -12 -15 -9 -8 4 -15 10 -15 15 0 5 7 9
15 9 8 0 15 -7 15 -15z m30 5 c0 -5 -4 -10 -10 -10 -5 0 -10 5 -10 10 0 6 5
10 10 10 6 0 10 -4 10 -10z m3030 -24 c0 -3 -4 -8 -10 -11 -5 -3 -10 -1 -10 4
0 6 5 11 10 11 6 0 10 -2 10 -4z m-2293 -12 c-3 -3 -12 -4 -19 -1 -8 3 -5 6 6
6 11 1 17 -2 13 -5z m63 -4 c0 -5 -2 -10 -4 -10 -3 0 -8 5 -11 10 -3 6 -1 10
4 10 6 0 11 -4 11 -10z m305 0 c-8 -13 -55 -18 -55 -6 0 6 13 11 30 12 16 1
27 -2 25 -6z m50 1 c7 -12 -12 -24 -25 -16 -11 7 -4 25 10 25 5 0 11 -4 15 -9z
m-175 -11 c0 -5 -4 -10 -10 -10 -5 0 -10 5 -10 10 0 6 5 10 10 10 6 0 10 -4
10 -10z m50 6 c0 -2 -7 -6 -15 -10 -8 -3 -15 -1 -15 4 0 6 7 10 15 10 8 0 15
-2 15 -4z m-2393 -12 c-3 -3 -12 -4 -19 -1 -8 3 -5 6 6 6 11 1 17 -2 13 -5z
m3320 -30 c-9 -9 -28 6 -21 18 4 6 10 6 17 -1 6 -6 8 -13 4 -17z m-867 6 c0
-5 -7 -10 -15 -10 -8 0 -15 5 -15 10 0 6 7 10 15 10 8 0 15 -4 15 -10z m160 0
c-19 -13 -30 -13 -30 0 0 6 10 10 23 10 18 0 19 -2 7 -10z m780 6 c0 -11 -19
-15 -25 -6 -3 5 1 10 9 10 9 0 16 -2 16 -4z m-2040 -26 c0 -5 -4 -10 -9 -10
-6 0 -13 5 -16 10 -3 6 1 10 9 10 9 0 16 -4 16 -10z m-1200 -51 c0 -5 -5 -9
-10 -9 -10 0 -30 41 -30 58 1 10 40 -39 40 -49z m4675 31 c3 -5 -1 -10 -9 -10
-9 0 -16 5 -16 10 0 6 4 10 9 10 6 0 13 -4 16 -10z m-4820 -30 c-10 -11 -23
-20 -28 -20 -13 0 24 39 37 39 5 1 1 -8 -9 -19z m2705 4 c0 -8 -5 -12 -10 -9
-6 4 -8 11 -5 16 9 14 15 11 15 -7z m-1330 -4 c0 -5 -4 -10 -10 -10 -5 0 -10
5 -10 10 0 6 5 10 10 10 6 0 10 -4 10 -10z m1370 0 c0 -5 -5 -10 -11 -10 -5 0
-7 5 -4 10 3 6 8 10 11 10 2 0 4 -4 4 -10z m380 0 c0 -5 -2 -10 -4 -10 -3 0
-8 5 -11 10 -3 6 -1 10 4 10 6 0 11 -4 11 -10z m-2937 -45 c-3 -9 -8 -14 -10
-11 -3 3 -2 9 2 15 9 16 15 13 8 -4z m2307 -15 c0 -5 -12 -10 -26 -10 -14 0
-23 4 -19 10 3 6 15 10 26 10 10 0 19 -4 19 -10z m-1564 -12 c4 -5 0 -9 -9 -9
-36 -3 -40 -4 -44 -16 -4 -12 8 -17 34 -14 6 1 14 -3 18 -9 4 -7 -15 -10 -54
-9 -42 1 -61 6 -61 14 0 9 -22 15 -62 20 -84 8 -118 15 -118 23 0 10 286 9
296 0z m884 0 c0 -5 -11 -8 -25 -8 -14 0 -25 4 -25 9 0 5 11 8 25 7 14 0 25
-4 25 -8z m-63 -4 c-3 -3 -12 -4 -19 -1 -8 3 -5 6 6 6 11 1 17 -2 13 -5z m963
-8 c0 -10 -7 -12 -22 -8 -21 5 -21 6 -2 13 10 4 20 8 22 8 1 1 2 -5 2 -13z
m-630 -27 c0 -6 -4 -7 -10 -4 -5 3 -10 11 -10 16 0 6 5 7 10 4 6 -3 10 -11 10
-16z m100 1 c0 -5 -5 -10 -11 -10 -5 0 -7 5 -4 10 3 6 8 10 11 10 2 0 4 -4 4
-10z m270 -20 c23 0 27 -3 23 -20 -6 -21 -28 -27 -38 -9 -4 6 -19 7 -37 4 -28
-7 -29 -6 -16 14 7 12 19 19 26 16 8 -3 26 -5 42 -5z m1595 -10 c-3 -5 -10
-10 -16 -10 -5 0 -9 5 -9 10 0 6 7 10 16 10 8 0 12 -4 9 -10z m-3189 -208
c-21 -21 -56 -6 -54 23 3 33 38 42 38 9 0 -13 5 -24 10 -24 6 0 11 42 12 103
l2 102 3 -99 c3 -76 0 -103 -11 -114z m134 199 c0 -15 -16 -22 -34 -15 -25 9
-19 24 9 24 14 0 25 -4 25 -9z m245 -1 c-3 -5 -10 -10 -16 -10 -5 0 -9 5 -9
10 0 6 7 10 16 10 8 0 12 -4 9 -10z m380 1 c3 -5 1 -12 -5 -16 -5 -3 -10 1
-10 9 0 18 6 21 15 7z m50 -1 c3 -5 1 -10 -4 -10 -6 0 -11 5 -11 10 0 6 2 10
4 10 3 0 8 -4 11 -10z m35 -6 c0 -8 -4 -12 -10 -9 -5 3 -10 10 -10 16 0 5 5 9
10 9 6 0 10 -7 10 -16z m1079 12 c-10 -10 -160 -15 -154 -6 3 5 40 10 82 10
42 0 74 -2 72 -4z m-2034 -26 c14 -5 25 -14 25 -20 0 -5 7 -10 15 -10 8 0 15
-7 15 -15 0 -10 -10 -15 -26 -15 -24 0 -53 -23 -54 -42 0 -5 16 -8 35 -8 19 0
35 -5 35 -11 0 -8 -14 -10 -44 -6 -38 6 -46 4 -51 -13 -13 -41 -74 -37 -93 6
-18 38 -14 63 13 88 29 27 31 36 8 36 -24 0 -4 17 27 23 28 5 57 1 95 -13z
m1213 8 c-5 -13 -26 -18 -42 -10 -10 5 14 22 32 22 8 0 12 -6 10 -12z m319 6
c-3 -3 -12 -4 -19 -1 -8 3 -5 6 6 6 11 1 17 -2 13 -5z m330 -36 c-3 -8 -6 -5
-6 6 -1 11 2 17 5 13 3 -3 4 -12 1 -19z m-1448 2 c11 0 11 -3 1 -15 -19 -22
-7 -28 61 -31 41 -2 68 -9 80 -20 15 -14 36 -17 92 -16 39 1 81 -2 92 -6 27
-10 -133 -20 -162 -10 -12 4 -24 4 -27 0 -7 -12 -67 -6 -75 7 -4 6 -18 13 -31
15 -14 2 -26 5 -27 7 -4 3 -21 6 -37 8 -8 0 -21 8 -30 16 -9 9 -17 11 -21 5
-4 -7 -13 -7 -26 0 -15 8 -19 7 -19 -3 0 -8 -7 -20 -15 -27 -9 -8 -15 -9 -15
-2 0 6 4 13 10 17 5 3 7 12 3 20 -4 11 3 15 26 15 17 0 31 4 31 9 0 12 29 20
55 15 11 -2 26 -4 34 -4z m2001 -10 c0 -5 -7 -10 -16 -10 -8 0 -12 5 -9 10 3
6 10 10 16 10 5 0 9 -4 9 -10z m-2320 -16 c0 -17 -22 -14 -28 4 -2 7 3 12 12
12 9 0 16 -7 16 -16z m77 -16 c-20 -13 -27 -9 -27 12 0 18 3 19 20 8 14 -9 16
-14 7 -20z m2843 22 c0 -5 -9 -14 -20 -20 -15 -8 -28 -6 -57 9 l-38 20 58 1
c31 0 57 -4 57 -10z m160 -10 c0 -11 -6 -20 -14 -20 -18 0 -29 16 -21 30 11
18 35 11 35 -10z m355 -26 c-51 -14 -181 -19 -209 -8 -40 15 6 24 127 23 130
-1 131 -1 82 -15z m485 -4 c0 -5 -5 -10 -11 -10 -5 0 -7 5 -4 10 3 6 8 10 11
10 2 0 4 -4 4 -10z m-1870 -10 c0 -5 -2 -10 -4 -10 -3 0 -8 5 -11 10 -3 6 -1
10 4 10 6 0 11 -4 11 -10z m1790 0 c0 -5 -7 -10 -16 -10 -8 0 -12 5 -9 10 3 6
10 10 16 10 5 0 9 -4 9 -10z m-3740 -25 c0 -9 -9 -15 -25 -15 -31 0 -33 17 -2
23 12 2 23 5 25 6 1 0 2 -6 2 -14z m2640 5 c0 -5 -2 -10 -4 -10 -3 0 -8 5 -11
10 -3 6 -1 10 4 10 6 0 11 -4 11 -10z m-3590 -225 c-3 -5 -8 13 -12 40 -9 70
-9 170 0 179 8 9 20 -203 12 -219z m3646 194 c3 -5 -14 -8 -38 -8 -24 1 -35 3
-25 6 9 2 17 8 17 13 0 10 38 1 46 -11z m-2461 -40 c11 -17 -1 -21 -15 -4 -8
9 -8 15 -2 15 6 0 14 -5 17 -11z m-145 -19 c0 -13 -11 -13 -30 0 -12 8 -11 10
8 10 12 0 22 -4 22 -10z m2580 -50 c11 -11 20 -22 20 -25 0 -3 -45 -5 -100 -5
-99 0 -126 -10 -77 -30 20 -8 19 -9 -10 -9 -18 -1 -33 4 -33 9 0 6 -3 9 -7 8
-5 -1 -21 4 -36 10 -16 7 -48 12 -73 12 -24 0 -44 3 -44 8 0 4 44 8 98 9 133
3 226 13 230 24 5 13 10 11 32 -11z m715 -10 c18 -8 18 -9 -5 -9 -14 0 -32 4
-40 9 -12 8 -12 10 5 9 11 0 29 -4 40 -9z m-1325 -15 c0 -8 -9 -15 -20 -15
-25 0 -26 17 -2 23 9 3 18 5 20 6 1 0 2 -6 2 -14z m-254 -10 c-21 -16 -32 -13
-21 4 3 6 14 11 23 11 15 -1 15 -2 -2 -15z m374 4 c0 -4 -13 -9 -30 -12 -20
-5 -28 -11 -24 -21 4 -12 -3 -14 -38 -10 -48 6 -64 14 -27 14 29 0 54 14 46
26 -3 5 12 9 34 9 21 0 39 -3 39 -6z m-1392 -8 c10 -6 7 -10 -13 -15 -32 -8
-46 1 -25 14 18 12 22 12 38 1z m1069 -28 c-3 -3 -11 -2 -17 2 -8 5 -7 11 2
22 12 15 13 14 16 -1 2 -10 1 -20 -1 -23z m73 17 c0 -11 -2 -20 -4 -20 -2 0
-6 9 -9 20 -3 11 -1 20 4 20 5 0 9 -9 9 -20z m27 -12 c-3 -7 -5 -2 -5 12 0 14
2 19 5 13 2 -7 2 -19 0 -25z m-1477 12 c0 -5 -4 -10 -9 -10 -6 0 -13 5 -16 10
-3 6 1 10 9 10 9 0 16 -4 16 -10z m-976 -78 c-16 -25 -38 -21 -42 7 -5 30 18
45 38 25 11 -11 12 -19 4 -32z m1651 28 c3 -5 -1 -10 -9 -10 -8 0 -18 5 -21
10 -3 6 1 10 9 10 8 0 18 -4 21 -10z m-1495 -21 c0 -5 -31 -9 -70 -9 -87 0
-93 18 -7 22 67 3 77 2 77 -13z m3010 -9 c0 -16 -7 -20 -33 -20 -18 0 -43 7
-55 16 -20 14 -22 14 -22 -2 0 -10 -3 -15 -6 -11 -4 3 -4 12 -1 20 4 10 23 15
61 16 50 1 56 -1 56 -19z m-286 -5 c13 -9 36 -18 52 -21 15 -3 37 -10 48 -17
20 -11 19 -12 -12 -15 -22 -2 -41 3 -53 14 -11 10 -25 14 -36 10 -9 -4 -14 -4
-10 0 4 4 0 16 -10 26 -20 22 -10 23 21 3z m469 8 c-7 -2 -19 -2 -25 0 -7 3
-2 5 12 5 14 0 19 -2 13 -5z m125 -37 c33 -16 39 -22 26 -26 -17 -6 -134 43
-134 56 0 10 62 -7 108 -30z m-2518 -21 c0 -8 -4 -15 -9 -15 -5 0 -11 7 -15
15 -3 9 0 15 9 15 8 0 15 -7 15 -15z m-741 -30 c12 -12 11 -15 -10 -19 -66
-16 -100 -13 -110 7 -8 15 -8 22 2 29 19 12 100 0 118 -17z m2461 15 c0 -5 -6
-10 -14 -10 -8 0 -18 5 -21 10 -3 6 3 10 14 10 12 0 21 -4 21 -10z m-1643 -22
c-3 -8 -6 -5 -6 6 -1 11 2 17 5 13 3 -3 4 -12 1 -19z m2302 -14 l26 -14 -25
-1 c-14 -1 -31 -1 -38 0 -7 1 -15 -5 -18 -14 -9 -23 -54 -20 -54 4 0 42 10 52
48 45 19 -4 47 -13 61 -20z m-3074 -2 c-3 -3 -11 0 -18 7 -9 10 -8 11 6 5 10
-3 15 -9 12 -12z m73 11 c-10 -2 -26 -2 -35 0 -10 3 -2 5 17 5 19 0 27 -2 18
-5z m2260 -10 c-10 -2 -26 -2 -35 0 -10 3 -2 5 17 5 19 0 27 -2 18 -5z m1107
-18 c47 -14 48 -14 10 -9 -22 2 -57 7 -77 10 -25 4 -38 2 -38 -5 0 -6 -11 -11
-24 -11 -19 0 -23 4 -19 20 5 18 11 20 52 15 25 -2 69 -11 96 -20z m-3745 -20
c-7 -8 -18 -15 -24 -15 -6 0 -2 7 8 15 25 19 32 19 16 0z m79 1 c-10 -11 -70
-16 -64 -6 3 5 20 10 37 10 17 0 29 -2 27 -4z m2401 -13 c24 -9 -30 -20 -69
-13 -56 9 -51 30 6 24 26 -3 55 -8 63 -11z m-1065 -3 c3 -6 -1 -7 -9 -4 -18 7
-21 14 -7 14 6 0 13 -4 16 -10z m-1828 -32 c-3 -8 -6 -5 -6 6 -1 11 2 17 5 13
3 -3 4 -12 1 -19z m803 10 c0 -4 -15 -8 -32 -8 -20 0 -28 3 -21 8 16 10 53 10
53 0z m2460 0 c0 -6 7 -20 17 -30 15 -17 15 -18 0 -18 -10 0 -17 5 -17 11 0 5
-3 8 -7 6 -5 -3 -9 6 -9 19 -1 13 2 24 7 24 5 0 9 -5 9 -12z m-2052 -5 c-10
-2 -26 -2 -35 0 -10 3 -2 5 17 5 19 0 27 -2 18 -5z m2440 1 c36 -10 25 -21
-20 -20 -23 1 -43 6 -46 14 -4 13 27 16 66 6z m-1753 -14 c3 -5 15 -10 26 -10
12 0 19 -7 19 -20 0 -13 5 -18 15 -14 8 4 15 1 15 -5 0 -6 -8 -11 -17 -12 -10
0 -48 -2 -84 -4 -36 -2 -72 1 -80 6 -10 6 -4 9 21 10 19 1 44 0 54 -1 16 -1
18 3 13 29 -6 30 5 42 18 21z m120 0 c3 -5 -3 -10 -14 -10 -12 0 -21 5 -21 10
0 6 6 10 14 10 8 0 18 -4 21 -10z m385 0 c0 -5 -4 -10 -9 -10 -6 0 -13 5 -16
10 -3 6 1 10 9 10 9 0 16 -4 16 -10z m-1932 -7 c-10 -2 -28 -2 -40 0 -13 2 -5
4 17 4 22 1 32 -1 23 -4z m2132 -3 c0 -5 -7 -10 -16 -10 -8 0 -12 5 -9 10 3 6
10 10 16 10 5 0 9 -4 9 -10z m60 0 c0 -5 -4 -10 -10 -10 -5 0 -10 5 -10 10 0
6 5 10 10 10 6 0 10 -4 10 -10z m1366 -5 c17 -13 14 -14 -37 -15 -38 0 -61 5
-69 15 -11 13 -6 15 37 15 28 0 58 -6 69 -15z m-1891 -5 c3 -5 -3 -10 -14 -10
-12 0 -21 5 -21 10 0 6 6 10 14 10 8 0 18 -4 21 -10z m65 6 c0 -3 -4 -8 -10
-11 -5 -3 -10 -1 -10 4 0 6 5 11 10 11 6 0 10 -2 10 -4z m840 -6 c11 -7 -5
-10 -52 -10 -39 0 -68 4 -68 10 0 13 100 13 120 0z m-1270 -21 c0 -5 -10 -9
-21 -9 -18 0 -19 2 -9 15 12 15 30 12 30 -6z m1671 9 c15 1 32 -5 39 -13 11
-14 10 -17 -8 -22 -27 -7 -29 -23 -3 -23 10 0 24 -7 31 -15 7 -8 29 -15 49
-16 20 -1 47 -4 61 -8 21 -6 17 -8 -24 -14 -36 -5 -55 -3 -72 8 -14 9 -47 15
-81 15 -39 0 -67 6 -83 17 -14 10 -32 16 -42 15 -9 -2 -19 2 -23 8 -4 6 12 10
45 10 51 0 52 1 46 26 -6 23 -5 25 16 18 13 -4 35 -7 49 -6z m-3036 -18 c18 0
18 -2 -5 -20 -28 -22 -96 -27 -103 -7 -5 15 41 37 68 32 11 -3 29 -5 40 -5z
m1250 -1 c4 -6 13 -8 20 -5 8 3 18 -1 24 -8 9 -10 3 -13 -26 -12 -27 1 -39 6
-41 19 -4 19 13 23 23 6z m629 3 c3 -5 -16 -9 -42 -9 -45 -1 -45 -1 -12 7 19
4 38 8 42 9 4 0 9 -3 12 -7z m951 -2 c4 -6 -12 -10 -39 -10 -25 0 -46 5 -46
10 0 6 18 10 39 10 22 0 43 -4 46 -10z m600 -16 c14 -9 23 -19 21 -22 -3 -3
-12 1 -20 7 -9 8 -37 11 -74 8 -52 -3 -92 7 -92 25 0 13 141 -2 165 -18z
m-3125 -34 c0 -6 -25 -9 -57 -8 l-58 1 45 7 c69 11 70 11 70 0z m2481 -37 l62
-48 -52 -3 c-40 -2 -57 2 -78 17 -14 12 -37 21 -50 21 -13 0 -22 4 -19 9 13
20 -28 33 -115 38 -89 5 -91 5 -80 -15 13 -25 26 -30 76 -28 35 1 46 -5 83
-41 l42 -43 -55 0 c-56 0 -69 -11 -37 -29 13 -8 1 -10 -48 -11 -62 0 -67 2
-98 35 -33 37 -42 61 -19 52 8 -3 20 -1 27 3 26 16 -8 40 -56 40 -23 0 -46 5
-49 10 -4 6 12 10 39 10 34 0 46 4 46 15 0 13 24 15 160 15 l160 0 61 -47z
m-1727 17 c7 -7 1 -10 -17 -10 -34 0 -37 -32 -5 -54 12 -9 17 -16 11 -16 -7 0
-14 4 -17 9 -3 5 -21 5 -40 1 -34 -7 -56 2 -56 24 0 5 -7 17 -16 27 -9 10 -13
22 -10 27 8 13 136 6 150 -8z m116 0 c0 -5 -4 -10 -10 -10 -5 0 -10 5 -10 10
0 6 5 10 10 10 6 0 10 -4 10 -10z m530 6 c0 -2 -7 -7 -16 -10 -8 -3 -12 -2 -9
4 6 10 25 14 25 6z m-1815 -16 c-3 -5 -20 -10 -36 -10 -18 0 -28 4 -24 10 3 6
20 10 36 10 18 0 28 -4 24 -10z m143 4 c33 -9 28 -34 -8 -34 -23 0 -30 4 -30
20 0 22 3 23 38 14z m1957 -24 c3 -6 -1 -7 -9 -4 -18 7 -21 14 -7 14 6 0 13
-4 16 -10z m-808 -34 c-2 -6 -15 -11 -28 -11 -34 0 -42 5 -29 19 12 16 63 8
57 -8z m660 -3 c11 -10 18 -24 16 -30 -5 -15 -59 -17 -68 -3 -3 6 3 10 14 10
12 0 21 5 21 10 0 6 -4 10 -10 10 -5 0 -10 5 -10 10 0 15 15 12 37 -7z m-137
-2 c0 -10 -30 -24 -37 -17 -3 3 -2 9 2 15 8 13 35 15 35 2z m-870 -5 c0 -11
-19 -15 -25 -6 -3 5 1 10 9 10 9 0 16 -2 16 -4z m600 -6 c0 -5 -5 -10 -11 -10
-5 0 -7 5 -4 10 3 6 8 10 11 10 2 0 4 -4 4 -10z m-1130 -10 c0 -5 -18 -10 -41
-10 -24 0 -38 4 -34 10 3 6 22 10 41 10 19 0 34 -4 34 -10z m614 3 c4 -5 13
-8 19 -8 7 0 13 -8 15 -18 3 -16 -3 -18 -45 -15 -35 2 -49 7 -51 20 -4 20 46
37 62 21z m-206 -32 c-5 -23 -55 -44 -116 -49 -43 -4 -55 -9 -62 -26 -7 -19
-9 -19 -15 -3 -5 13 -19 17 -57 17 -27 0 -47 4 -44 9 3 4 32 7 65 5 57 -3 60
-2 49 16 -7 11 -9 23 -4 27 4 4 12 0 17 -10 16 -27 73 -23 88 7 10 19 21 24
47 23 26 -1 34 -5 32 -16z m39 13 c-3 -3 -12 -4 -19 -1 -8 3 -5 6 6 6 11 1 17
-2 13 -5z m616 -1 c-7 -2 -19 -2 -25 0 -7 3 -2 5 12 5 14 0 19 -2 13 -5z m597
-14 c0 -11 -28 -24 -36 -17 -2 3 -2 12 2 21 6 16 34 12 34 -4z m-2359 -66 c-8
-15 -10 -10 -11 23 0 22 3 44 8 48 11 12 14 -52 3 -71z m902 70 c-7 -2 -19 -2
-25 0 -7 3 -2 5 12 5 14 0 19 -2 13 -5z m2512 -10 c11 -7 30 -13 43 -13 21 0
23 -4 18 -25 -6 -22 -3 -25 19 -25 27 0 32 9 14 27 -9 9 18 12 105 11 l116 0
0 -27 c0 -33 -17 -51 -46 -51 -13 0 -25 -4 -29 -9 -10 -17 60 -43 125 -46 50
-3 66 -7 68 -19 3 -12 -6 -16 -40 -18 -77 -2 -102 3 -136 30 -68 54 -80 59
-139 57 -41 -2 -65 3 -91 18 -30 18 -33 22 -18 32 9 7 16 15 16 18 0 11 -37
21 -99 26 -40 4 -66 11 -69 19 -6 18 115 14 143 -5z m-1938 -10 c33 4 54 1 67
-9 26 -18 15 -27 -18 -15 -17 7 -26 7 -26 1 0 -6 -25 -10 -55 -10 -60 0 -61 1
-43 30 8 12 15 15 19 8 5 -7 25 -9 56 -5z m-702 -28 c0 -12 -40 -19 -61 -11
-9 3 -12 11 -9 16 8 14 70 9 70 -5z m1589 -11 c28 -8 53 -19 58 -26 6 -10 10
-10 17 1 10 15 38 4 61 -24 11 -14 8 -15 -31 -15 -24 0 -69 -1 -99 -1 -154 0
-160 0 -160 20 0 13 10 20 31 25 20 4 33 13 36 26 4 15 10 19 22 14 9 -4 38
-13 65 -20z m-2455 -97 l-13 -31 -7 34 c-5 24 -2 43 9 65 l17 30 3 -34 c2 -18
-2 -47 -9 -64z m2666 83 c3 -6 -1 -7 -9 -4 -18 7 -21 14 -7 14 6 0 13 -4 16
-10z m135 -15 c11 -13 9 -15 -13 -15 -14 0 -27 7 -31 15 -3 10 1 15 13 15 10
0 24 -7 31 -15z m-1530 -5 c0 -5 -17 -10 -37 -9 -31 0 -34 2 -18 9 28 12 55
12 55 0z m550 -10 c24 -24 25 -36 4 -44 -34 -13 -52 -6 -57 21 -8 43 20 56 53
23z m133 13 c-7 -2 -19 -2 -25 0 -7 3 -2 5 12 5 14 0 19 -2 13 -5z m314 1 c-3
-3 -12 -4 -19 -1 -8 3 -5 6 6 6 11 1 17 -2 13 -5z m-1294 -34 c-3 -11 -7 -20
-9 -20 -2 0 -4 9 -4 20 0 11 4 20 9 20 5 0 7 -9 4 -20z m-43 -20 c0 -5 -10
-10 -22 -10 -19 0 -20 2 -8 10 19 13 30 13 30 0z m-150 -10 c0 -5 -7 -10 -16
-10 -8 0 -12 5 -9 10 3 6 10 10 16 10 5 0 9 -4 9 -10z m655 2 c6 -4 11 -14 10
-22 0 -18 -75 -28 -75 -10 0 6 8 10 18 8 11 -2 17 3 16 15 -2 18 13 22 31 9z
m922 -8 c-3 -3 -12 -4 -19 -1 -8 3 -5 6 6 6 11 1 17 -2 13 -5z m-247 -39 c0
-9 -9 -15 -24 -15 -28 0 -43 16 -24 23 26 11 48 7 48 -8z m-204 -4 c-8 -12
-46 -21 -46 -11 0 9 18 18 38 19 7 1 11 -3 8 -8z m669 -37 c13 -12 21 -25 18
-27 -7 -7 -43 4 -38 12 2 4 -4 7 -13 7 -9 0 -35 1 -57 3 -37 2 -38 3 -18 14
37 20 82 17 108 -9z m-1205 -1 c0 -8 -13 -13 -35 -13 -25 0 -35 4 -35 15 0 12
9 15 35 13 21 -1 35 -7 35 -15z m355 8 c7 -12 -26 -31 -54 -31 -28 0 -27 14 2
28 28 14 44 14 52 3z m930 -1 c8 -13 -5 -13 -25 0 -13 8 -13 10 2 10 9 0 20
-4 23 -10z m-795 -22 c0 -5 -26 -8 -60 -6 -55 3 -68 7 -56 19 9 8 116 -3 116
-13z"/>
<path d="M440 1889 c0 -5 5 -7 10 -4 6 3 10 8 10 11 0 2 -4 4 -10 4 -5 0 -10
-5 -10 -11z"/>
<path d="M1210 2907 c0 -7 5 -18 11 -24 8 -8 8 -13 0 -17 -6 -4 -11 -16 -11
-27 0 -16 7 -19 45 -19 l45 0 0 50 0 50 -45 0 c-30 0 -45 -4 -45 -13z"/>
<path d="M2650 2912 c0 -4 -10 -12 -22 -17 -19 -8 -23 -18 -23 -57 0 -27 1
-48 2 -48 1 0 14 11 28 25 18 19 25 36 25 65 0 22 -2 40 -5 40 -3 0 -5 -3 -5
-8z"/>
<path d="M3772 2894 c-4 -6 -16 -14 -26 -18 -15 -5 -17 -9 -8 -18 7 -7 12 -20
12 -30 0 -10 5 -18 10 -18 16 0 12 -86 -5 -100 -8 -7 -14 -18 -14 -24 1 -6 -2
-22 -8 -36 -27 -66 -27 -71 4 -64 30 8 53 26 53 43 0 6 5 11 10 11 16 0 80 68
80 85 0 8 5 15 10 15 6 0 10 11 10 24 0 14 5 28 10 31 15 9 12 74 -3 90 -17
16 -126 24 -135 9z"/>
<path d="M2782 2868 c5 -15 48 -18 48 -3 0 6 -11 11 -26 13 -18 3 -25 0 -22
-10z"/>
<path d="M2217 2853 c-4 -3 -7 -33 -7 -65 l0 -58 70 0 c75 0 84 8 58 50 -10
15 -10 22 0 32 6 6 12 20 12 30 0 15 -9 18 -63 18 -35 0 -67 -3 -70 -7z m20
-65 c-3 -8 -6 -5 -6 6 -1 11 2 17 5 13 3 -3 4 -12 1 -19z"/>
<path d="M720 2790 c0 -27 3 -30 30 -30 30 0 40 14 18 24 -10 5 -10 7 0 12 22
10 12 24 -18 24 -27 0 -30 -3 -30 -30z"/>
<path d="M2790 2787 c0 -20 4 -37 10 -37 5 0 7 14 3 33 -8 45 -13 47 -13 4z"/>
<path d="M1757 2803 c-4 -3 -7 -21 -7 -38 0 -33 11 -39 58 -29 27 5 29 34 2
34 -11 0 -20 5 -20 10 0 6 9 10 20 10 11 0 20 5 20 10 0 11 -63 14 -73 3z"/>
<path d="M2840 2800 c0 -5 5 -10 10 -10 6 0 10 -7 10 -15 0 -8 9 -15 20 -15
26 0 25 7 -2 31 -26 21 -38 24 -38 9z"/>
<path d="M351 2748 c5 -57 0 -68 -31 -68 -25 0 -30 -4 -30 -23 0 -13 4 -27 9
-32 5 -6 12 -20 16 -32 5 -17 2 -23 -9 -23 -11 0 -16 -9 -16 -30 l0 -30 91 0
c89 0 90 0 84 23 -4 12 -13 27 -21 33 -19 15 -18 54 2 54 27 0 13 53 -16 61
-14 4 -20 7 -13 8 19 2 4 28 -20 36 l-22 6 23 9 c33 14 27 30 -13 30 -31 0
-35 -3 -34 -22z m29 -137 c0 -5 -9 -7 -20 -4 -11 3 -20 7 -20 9 0 2 9 4 20 4
11 0 20 -4 20 -9z"/>
<path d="M50 2728 c0 -35 12 -30 17 7 2 14 -1 25 -7 25 -5 0 -10 -14 -10 -32z"/>
<path d="M2790 2714 c0 -8 5 -12 10 -9 6 4 8 11 5 16 -9 14 -15 11 -15 -7z"/>
<path d="M2350 2659 c0 -28 2 -30 32 -27 26 3 32 7 33 31 1 24 -3 27 -32 27
-30 0 -33 -3 -33 -31z"/>
<path d="M1303 2640 c0 -26 4 -30 29 -30 24 0 28 4 28 30 0 26 -4 30 -28 30
-25 0 -29 -4 -29 -30z"/>
<path d="M530 2625 c0 -32 3 -35 29 -35 27 0 29 3 28 35 -1 31 -4 35 -29 35
-25 0 -28 -3 -28 -35z"/>
<path d="M1040 2630 c6 -12 8 -30 5 -41 -5 -15 -2 -22 14 -26 11 -3 21 -15 23
-27 3 -18 11 -21 52 -24 60 -4 75 8 56 43 -11 20 -11 30 -3 45 15 22 7 30 -28
30 -15 0 -31 5 -34 10 -3 6 -26 10 -51 10 -42 0 -44 -1 -34 -20z"/>
<path d="M2490 2620 c0 -18 7 -20 60 -20 33 0 60 4 60 10 0 6 -20 10 -45 10
-25 0 -45 5 -45 10 0 6 -7 10 -15 10 -8 0 -15 -9 -15 -20z"/>
<path d="M2090 2594 c0 -22 4 -25 27 -22 14 2 29 9 31 17 3 9 0 11 -7 7 -7 -4
-20 -5 -29 -1 -14 7 -13 9 8 15 l25 8 -27 1 c-24 1 -28 -3 -28 -25z"/>
<path d="M2622 2562 c-9 -6 -5 -12 13 -22 14 -7 24 -20 23 -28 -2 -8 3 -17 10
-19 17 -6 15 28 -4 55 -16 24 -22 26 -42 14z"/>
<path d="M2260 2541 c0 -24 16 -36 23 -19 3 8 6 6 6 -4 1 -10 -6 -18 -14 -18
-9 0 -15 -9 -15 -25 0 -24 2 -25 65 -25 36 0 65 2 65 5 0 3 -11 18 -25 32 -13
15 -22 29 -19 32 3 3 9 -1 13 -8 7 -11 11 -9 20 7 20 37 13 42 -54 42 -58 0
-65 -2 -65 -19z"/>
<path d="M3415 2530 c5 -17 1 -32 -32 -109 -17 -37 -4 -57 26 -41 21 11 53 23
65 24 6 1 14 17 19 36 5 19 12 37 16 40 4 3 10 15 13 26 4 18 2 21 -15 16 -12
-3 -23 1 -28 11 -6 9 -22 15 -39 15 -24 -1 -29 -5 -25 -18z"/>
<path d="M1789 2538 c-1 -2 -3 -13 -4 -25 -2 -18 3 -23 21 -23 19 0 24 5 24
25 0 18 -5 25 -20 25 -11 0 -21 -1 -21 -2z"/>
<path d="M2605 2500 c-4 -6 -3 -16 3 -22 6 -6 12 -6 17 2 4 6 3 16 -3 22 -6 6
-12 6 -17 -2z"/>
<path d="M2543 2443 c9 -2 25 -2 35 0 9 3 1 5 -18 5 -19 0 -27 -2 -17 -5z"/>
<path d="M2666 2299 c-22 -37 -15 -75 15 -84 26 -9 39 8 39 52 0 68 -24 83
-54 32z"/>
<path d="M3290 2299 c0 -4 -19 -9 -42 -11 -32 -2 -42 -7 -44 -23 -2 -11 2 -23
8 -26 6 -4 11 -28 12 -53 1 -25 3 -46 6 -46 13 0 28 24 23 36 -4 10 0 12 11 8
20 -8 66 31 66 56 0 9 5 21 11 27 6 6 9 16 5 21 -7 12 -56 22 -56 11z"/>
<path d="M2626 2202 c-3 -5 6 -12 20 -15 15 -3 23 0 21 7 -5 14 -33 20 -41 8z"/>
<path d="M2930 2010 c-12 -8 -10 -10 8 -10 13 0 20 4 17 10 -7 12 -6 12 -25 0z"/>
<path d="M70 1900 c0 -5 4 -10 9 -10 5 0 18 -3 28 -7 16 -6 16 -5 4 10 -15 19
-41 23 -41 7z"/>
<path d="M82 1441 c-29 -8 -27 -17 16 -61 l35 -35 -6 44 c-6 51 -14 60 -45 52z"/>
<path d="M50 1381 c0 -12 5 -21 10 -21 6 0 10 6 10 14 0 8 -4 18 -10 21 -5 3
-10 -3 -10 -14z"/>
<path d="M270 1063 c1 -37 3 -44 11 -31 5 10 16 15 24 12 20 -8 20 32 1 52
-26 25 -36 16 -36 -33z"/>
<path d="M387 946 c-6 -15 1 -26 15 -26 11 0 10 27 -1 34 -5 3 -11 0 -14 -8z"/>
<path d="M350 850 c0 -16 5 -30 10 -30 6 0 10 5 10 10 0 6 11 10 23 10 29 0
37 7 30 26 -3 8 -19 14 -39 14 -31 0 -34 -3 -34 -30z"/>
<path d="M362 768 c6 -18 28 -21 28 -4 0 9 -7 16 -16 16 -9 0 -14 -5 -12 -12z"/>
<path d="M355 311 c-3 -5 2 -11 10 -15 8 -3 17 -1 20 3 3 5 -2 11 -10 15 -8 3
-17 1 -20 -3z"/>
<path d="M4370 285 c0 -16 70 -41 93 -32 8 3 17 15 20 26 5 20 1 21 -54 21
-45 0 -59 -3 -59 -15z"/>
<path d="M3463 206 c2 -19 37 -33 37 -15 0 5 -6 9 -14 9 -8 0 -17 6 -20 13 -3
6 -5 3 -3 -7z"/>
<path d="M3510 210 c0 -5 5 -10 11 -10 5 0 7 5 4 10 -3 6 -8 10 -11 10 -2 0
-4 -4 -4 -10z"/>
<path d="M3400 190 c13 -23 20 -26 20 -6 0 8 -7 16 -15 20 -13 4 -14 2 -5 -14z"/>
<path d="M3550 155 c0 -8 4 -15 10 -15 5 0 7 7 4 15 -4 8 -8 15 -10 15 -2 0
-4 -7 -4 -15z"/>
<path d="M60 40 c0 -5 5 -10 11 -10 5 0 7 5 4 10 -3 6 -8 10 -11 10 -2 0 -4
-4 -4 -10z"/>
</g>
</svg>
